<svg width="1280" height="360" viewBox="0 0 1280 360" fill="none" xmlns="http://www.w3.org/2000/svg">
<path d="M603.955 125.5V67.3182H617.409V71.7728H609.045V121.046H617.409V125.5H603.955Z" fill="#32C572"/>
<path d="M643.929 111.046V107.814L648.249 106.054V87.4615C648.249 83.3975 646.137 81.9895 643.321 81.9895C641.113 81.9895 638.105 82.6935 634.681 84.5815V106.118L638.905 107.814V111.046H624.409V107.814L628.729 106.054V84.1335L623.129 83.2695V79.7175L633.497 77.3175L634.329 77.6695V81.3495C638.521 78.6935 642.361 77.1575 646.105 77.1575C651.577 77.1575 654.201 80.2615 654.201 86.2135V106.118L658.425 107.814V111.046H643.929Z" fill="#2A2D3F"/>
<path d="M676.045 67.3182V125.5H662.591V121.046H670.955V71.7728H662.591V67.3182H676.045Z" fill="#32C572"/>
<path d="M628.473 69.4135C629.081 63.2375 631.385 60.1335 635.097 60.1335C640.121 60.1335 641.721 65.7655 644.921 65.7655C646.809 65.7655 648.345 63.8775 648.857 60.4535L651.833 61.4775C651.225 67.6535 648.889 70.7895 645.177 70.7895C640.153 70.7895 638.617 65.1255 635.385 65.1255C633.529 65.1255 631.961 67.0135 631.449 70.4695L628.473 69.4135Z" fill="#FE640B"/>
<path d="M511.92 239V237.6L513.8 237.32C514.227 237.24 514.507 237.08 514.64 236.84C514.773 236.573 514.84 236.093 514.84 235.4V222.84C514.84 221.907 514.76 221.28 514.6 220.96C514.44 220.64 514.067 220.453 513.48 220.4L511.56 220.16L511.76 218.76L518.12 218.32L518.48 218.6L518.64 222.32H518.72C519.387 220.96 520.347 219.907 521.6 219.16C522.853 218.413 524.2 218.04 525.64 218.04C527.053 218.04 528.24 218.307 529.2 218.84C530.16 219.347 530.88 220.12 531.36 221.16C531.84 222.173 532.08 223.427 532.08 224.92V235.68C532.08 236.293 532.16 236.707 532.32 236.92C532.48 237.133 532.813 237.28 533.32 237.36L535.12 237.6V239H525.08V237.64L526.76 237.4C527.267 237.293 527.587 237.133 527.72 236.92C527.88 236.707 527.96 236.307 527.96 235.72V225.56C527.96 224.307 527.84 223.32 527.6 222.6C527.36 221.853 526.96 221.32 526.4 221C525.867 220.68 525.12 220.52 524.16 220.52C523.147 220.52 522.24 220.747 521.44 221.2C520.667 221.627 520.053 222.253 519.6 223.08C519.173 223.88 518.96 224.84 518.96 225.96V235.56C518.96 236.147 519.027 236.56 519.16 236.8C519.293 237.04 519.56 237.2 519.96 237.28L521.96 237.64V239H511.92ZM557.656 239.56C555.656 239.56 553.909 239.147 552.416 238.32C550.949 237.467 549.816 236.28 549.016 234.76C548.216 233.213 547.816 231.373 547.816 229.24C547.816 226.893 548.242 224.893 549.096 223.24C549.949 221.56 551.149 220.28 552.696 219.4C554.269 218.493 556.109 218.04 558.216 218.04C560.162 218.04 561.856 218.453 563.296 219.28C564.736 220.08 565.842 221.253 566.616 222.8C567.416 224.32 567.816 226.147 567.816 228.28C567.816 230.573 567.389 232.573 566.536 234.28C565.709 235.96 564.536 237.267 563.016 238.2C561.496 239.107 559.709 239.56 557.656 239.56ZM558.256 237.72C559.349 237.72 560.269 237.413 561.016 236.8C561.789 236.187 562.362 235.253 562.736 234C563.109 232.747 563.296 231.147 563.296 229.2C563.296 227.653 563.162 226.293 562.896 225.12C562.656 223.92 562.282 222.933 561.776 222.16C561.269 221.387 560.656 220.813 559.936 220.44C559.242 220.04 558.442 219.84 557.536 219.84C556.416 219.84 555.469 220.133 554.696 220.72C553.922 221.28 553.322 222.173 552.896 223.4C552.496 224.6 552.296 226.147 552.296 228.04C552.296 230.2 552.536 232 553.016 233.44C553.522 234.853 554.216 235.92 555.096 236.64C555.976 237.36 557.029 237.72 558.256 237.72ZM581.139 239V237.6L583.019 237.28C583.445 237.2 583.725 237.04 583.859 236.8C583.992 236.533 584.059 236.053 584.059 235.36V222.88C584.059 221.947 583.979 221.32 583.819 221C583.659 220.653 583.285 220.453 582.699 220.4L580.779 220.2L580.979 218.76L587.259 218.32L587.619 218.6L587.899 222.36H587.979C588.645 220.973 589.499 219.907 590.539 219.16C591.579 218.413 592.699 218.04 593.899 218.04C595.179 218.04 596.192 218.387 596.939 219.08C597.685 219.747 598.059 220.64 598.059 221.76C598.059 222.427 597.952 223 597.739 223.48C597.552 223.933 597.245 224.293 596.819 224.56C596.419 224.8 595.912 224.92 595.299 224.92C594.499 224.92 593.885 224.747 593.459 224.4C593.059 224.053 592.859 223.613 592.859 223.08C592.859 222.84 592.899 222.6 592.979 222.36C593.059 222.12 593.179 221.84 593.339 221.52C593.499 221.2 593.699 220.84 593.939 220.44C593.325 220.2 592.672 220.173 591.979 220.36C591.312 220.547 590.685 220.92 590.099 221.48C589.539 222.013 589.072 222.693 588.699 223.52C588.352 224.32 588.179 225.187 588.179 226.12V235.44C588.179 236.08 588.245 236.52 588.379 236.76C588.512 236.973 588.792 237.107 589.219 237.16L592.539 237.6V239H581.139ZM610.076 239V237.56L612.236 237.24C612.716 237.187 613.022 237.027 613.156 236.76C613.289 236.493 613.356 236 613.356 235.28V222.96C613.356 222 613.276 221.36 613.116 221.04C612.956 220.72 612.569 220.52 611.956 220.44L610.076 220.24L610.236 218.76L617.116 218.44L617.516 218.64V235.44C617.516 236 617.582 236.427 617.716 236.72C617.849 236.987 618.169 237.16 618.676 237.24L620.836 237.6V239H610.076ZM614.876 214.28C614.049 214.28 613.369 214.027 612.836 213.52C612.302 213.013 612.036 212.347 612.036 211.52C612.036 210.72 612.302 210.067 612.836 209.56C613.369 209.027 614.049 208.76 614.876 208.76C615.756 208.76 616.449 209.013 616.956 209.52C617.489 210.027 617.756 210.693 617.756 211.52C617.756 212.32 617.489 212.987 616.956 213.52C616.422 214.027 615.729 214.28 614.876 214.28ZM642.195 248.2C640.648 248.2 639.288 248.093 638.115 247.88C636.942 247.667 635.968 247.347 635.195 246.92C634.448 246.52 633.875 246.013 633.475 245.4C633.102 244.787 632.915 244.067 632.915 243.24C632.915 242.547 633.048 241.92 633.315 241.36C633.608 240.8 634.048 240.307 634.635 239.88C635.248 239.453 635.995 239.093 636.875 238.8V238.64C636.022 238.427 635.355 238.027 634.875 237.44C634.422 236.827 634.195 236.16 634.195 235.44C634.195 234.72 634.382 234.04 634.755 233.4C635.128 232.76 635.822 231.92 636.835 230.88V230.76C635.848 230.253 635.102 229.547 634.595 228.64C634.088 227.733 633.835 226.6 633.835 225.24C633.835 223.747 634.182 222.467 634.875 221.4C635.595 220.333 636.595 219.507 637.875 218.92C639.182 218.333 640.675 218.04 642.355 218.04C642.995 218.04 643.635 218.093 644.275 218.2C644.915 218.307 645.528 218.467 646.115 218.68C646.728 218.893 647.275 219.147 647.755 219.44C648.208 218.187 648.768 217.2 649.435 216.48C650.102 215.76 650.902 215.4 651.835 215.4C652.368 215.4 652.835 215.493 653.235 215.68C653.662 215.867 653.995 216.12 654.235 216.44C654.475 216.76 654.595 217.16 654.595 217.64C654.595 218.227 654.368 218.76 653.915 219.24C653.462 219.72 652.915 219.96 652.275 219.96C651.902 219.96 651.582 219.867 651.315 219.68C651.048 219.467 650.808 219.187 650.595 218.84L650.035 217.84C649.795 218.187 649.582 218.56 649.395 218.96C649.235 219.333 649.062 219.787 648.875 220.32C649.408 220.933 649.835 221.653 650.155 222.48C650.502 223.28 650.675 224.133 650.675 225.04C650.675 226.48 650.328 227.733 649.635 228.8C648.968 229.84 648.022 230.653 646.795 231.24C645.568 231.827 644.102 232.12 642.395 232.12C641.622 232.12 640.888 232.067 640.195 231.96C639.502 231.827 638.928 231.667 638.475 231.48C637.995 232.013 637.662 232.453 637.475 232.8C637.288 233.12 637.195 233.467 637.195 233.84C637.195 234.24 637.302 234.587 637.515 234.88C637.728 235.147 638.062 235.347 638.515 235.48C638.968 235.587 639.555 235.64 640.275 235.64H645.755C648.262 235.64 650.115 236.053 651.315 236.88C652.515 237.68 653.115 238.973 653.115 240.76C653.115 241.667 652.968 242.493 652.675 243.24C652.382 244.013 651.942 244.693 651.355 245.28C650.795 245.893 650.075 246.413 649.195 246.84C648.315 247.293 647.288 247.627 646.115 247.84C644.942 248.08 643.635 248.2 642.195 248.2ZM642.555 246.32C643.888 246.32 645.035 246.133 645.995 245.76C646.982 245.413 647.742 244.92 648.275 244.28C648.835 243.667 649.115 242.933 649.115 242.08C649.115 241.12 648.782 240.413 648.115 239.96C647.475 239.507 646.528 239.28 645.275 239.28H638.475C637.915 239.707 637.475 240.2 637.155 240.76C636.862 241.347 636.715 241.973 636.715 242.64C636.715 243.92 637.182 244.853 638.115 245.44C639.048 246.027 640.528 246.32 642.555 246.32ZM642.315 230.44C643.675 230.44 644.702 229.987 645.395 229.08C646.115 228.147 646.475 226.84 646.475 225.16C646.475 223.4 646.088 222.04 645.315 221.08C644.568 220.12 643.488 219.64 642.075 219.64C640.742 219.64 639.742 220.107 639.075 221.04C638.408 221.947 638.075 223.28 638.075 225.04C638.075 226.693 638.448 228.013 639.195 229C639.968 229.96 641.008 230.44 642.315 230.44ZM665.585 239V237.56L667.545 237.28C668.079 237.2 668.412 237.027 668.545 236.76C668.705 236.493 668.785 235.987 668.785 235.24V212.64C668.785 211.733 668.692 211.133 668.505 210.84C668.319 210.547 667.892 210.36 667.225 210.28L665.425 210.04L665.585 208.56L672.545 208.36L672.945 208.72V235.4C672.945 235.96 673.012 236.4 673.145 236.72C673.279 237.013 673.625 237.2 674.185 237.28L676.265 237.6V239H665.585ZM694.907 239.56C693.173 239.56 691.8 239.08 690.787 238.12C689.773 237.133 689.267 235.813 689.267 234.16C689.267 232.72 689.627 231.56 690.347 230.68C691.067 229.8 692.253 229.133 693.907 228.68C695.587 228.2 697.84 227.893 700.667 227.76V224.16C700.667 223.067 700.52 222.187 700.227 221.52C699.96 220.853 699.52 220.36 698.907 220.04C698.32 219.72 697.547 219.56 696.587 219.56C695.813 219.56 695.04 219.68 694.267 219.92C693.52 220.16 692.96 220.467 692.587 220.84C692.933 221.32 693.213 221.733 693.427 222.08C693.64 222.427 693.787 222.72 693.867 222.96C693.947 223.2 693.987 223.4 693.987 223.56C693.987 224.067 693.773 224.507 693.347 224.88C692.947 225.227 692.4 225.4 691.707 225.4C690.96 225.4 690.387 225.213 689.987 224.84C689.587 224.467 689.387 223.933 689.387 223.24C689.387 222.333 689.733 221.48 690.427 220.68C691.147 219.88 692.093 219.24 693.267 218.76C694.467 218.28 695.76 218.04 697.147 218.04C698.88 218.04 700.307 218.307 701.427 218.84C702.573 219.347 703.427 220.147 703.987 221.24C704.547 222.307 704.827 223.667 704.827 225.32V235.24C704.827 235.907 704.973 236.387 705.267 236.68C705.587 236.973 706.013 237.12 706.547 237.12C706.84 237.12 707.133 237.093 707.427 237.04C707.747 236.96 708.093 236.853 708.467 236.72L708.787 237.8C708.227 238.387 707.6 238.827 706.907 239.12C706.213 239.413 705.533 239.56 704.867 239.56C703.667 239.56 702.747 239.253 702.107 238.64C701.493 238 701.12 237.08 700.987 235.88C700.507 236.733 699.973 237.427 699.387 237.96C698.8 238.493 698.133 238.893 697.387 239.16C696.667 239.427 695.84 239.56 694.907 239.56ZM696.667 237.16C697.44 237.16 698.12 236.987 698.707 236.64C699.32 236.267 699.8 235.773 700.147 235.16C700.493 234.52 700.667 233.8 700.667 233V229.28C699.013 229.28 697.653 229.44 696.587 229.76C695.52 230.053 694.733 230.52 694.227 231.16C693.747 231.8 693.507 232.64 693.507 233.68C693.507 234.773 693.787 235.627 694.347 236.24C694.907 236.853 695.68 237.16 696.667 237.16ZM720.347 239V237.64L732.387 220.2H727.147C726.107 220.2 725.294 220.333 724.707 220.6C724.147 220.867 723.681 221.373 723.307 222.12C722.961 222.867 722.587 223.933 722.187 225.32L720.547 225.44L721.027 218.6H736.907V220L725.027 237.32H730.067C730.894 237.32 731.587 237.253 732.147 237.12C732.707 236.96 733.174 236.68 733.547 236.28C733.921 235.88 734.267 235.307 734.587 234.56C734.907 233.813 735.254 232.827 735.627 231.6H737.227L736.667 239H720.347ZM759.678 239.56C757.758 239.56 756.078 239.147 754.638 238.32C753.225 237.493 752.132 236.307 751.358 234.76C750.585 233.187 750.198 231.32 750.198 229.16C750.198 226.84 750.612 224.853 751.438 223.2C752.265 221.52 753.425 220.24 754.918 219.36C756.412 218.48 758.145 218.04 760.118 218.04C761.612 218.04 762.918 218.333 764.038 218.92C765.158 219.507 766.025 220.347 766.638 221.44C767.278 222.507 767.598 223.773 767.598 225.24C767.598 225.747 767.558 226.267 767.478 226.8C767.425 227.333 767.345 227.893 767.238 228.48H754.638C754.638 230.24 754.892 231.72 755.398 232.92C755.932 234.093 756.665 234.987 757.598 235.6C758.532 236.187 759.625 236.48 760.878 236.48C761.972 236.48 762.998 236.28 763.958 235.88C764.945 235.48 765.892 234.853 766.798 234L767.838 235C766.852 236.52 765.652 237.667 764.238 238.44C762.852 239.187 761.332 239.56 759.678 239.56ZM754.638 226.8H763.358C763.385 226.533 763.398 226.24 763.398 225.92C763.425 225.6 763.438 225.267 763.438 224.92C763.438 223.053 763.132 221.707 762.518 220.88C761.905 220.053 760.972 219.64 759.718 219.64C758.732 219.64 757.878 219.893 757.158 220.4C756.465 220.907 755.905 221.693 755.478 222.76C755.052 223.8 754.772 225.147 754.638 226.8Z" fill="#5C5F77"/>
<path d="M511.92 239V237.6L513.8 237.32C514.227 237.24 514.507 237.08 514.64 236.84C514.773 236.573 514.84 236.093 514.84 235.4V222.84C514.84 221.907 514.76 221.28 514.6 220.96C514.44 220.64 514.067 220.453 513.48 220.4L511.56 220.16L511.76 218.76L518.12 218.32L518.48 218.6L518.64 222.32H518.72C519.387 220.96 520.347 219.907 521.6 219.16C522.853 218.413 524.2 218.04 525.64 218.04C527.053 218.04 528.24 218.307 529.2 218.84C530.16 219.347 530.88 220.12 531.36 221.16C531.84 222.173 532.08 223.427 532.08 224.92V235.68C532.08 236.293 532.16 236.707 532.32 236.92C532.48 237.133 532.813 237.28 533.32 237.36L535.12 237.6V239H525.08V237.64L526.76 237.4C527.267 237.293 527.587 237.133 527.72 236.92C527.88 236.707 527.96 236.307 527.96 235.72V225.56C527.96 224.307 527.84 223.32 527.6 222.6C527.36 221.853 526.96 221.32 526.4 221C525.867 220.68 525.12 220.52 524.16 220.52C523.147 220.52 522.24 220.747 521.44 221.2C520.667 221.627 520.053 222.253 519.6 223.08C519.173 223.88 518.96 224.84 518.96 225.96V235.56C518.96 236.147 519.027 236.56 519.16 236.8C519.293 237.04 519.56 237.2 519.96 237.28L521.96 237.64V239H511.92ZM557.656 239.56C555.656 239.56 553.909 239.147 552.416 238.32C550.949 237.467 549.816 236.28 549.016 234.76C548.216 233.213 547.816 231.373 547.816 229.24C547.816 226.893 548.242 224.893 549.096 223.24C549.949 221.56 551.149 220.28 552.696 219.4C554.269 218.493 556.109 218.04 558.216 218.04C560.162 218.04 561.856 218.453 563.296 219.28C564.736 220.08 565.842 221.253 566.616 222.8C567.416 224.32 567.816 226.147 567.816 228.28C567.816 230.573 567.389 232.573 566.536 234.28C565.709 235.96 564.536 237.267 563.016 238.2C561.496 239.107 559.709 239.56 557.656 239.56ZM558.256 237.72C559.349 237.72 560.269 237.413 561.016 236.8C561.789 236.187 562.362 235.253 562.736 234C563.109 232.747 563.296 231.147 563.296 229.2C563.296 227.653 563.162 226.293 562.896 225.12C562.656 223.92 562.282 222.933 561.776 222.16C561.269 221.387 560.656 220.813 559.936 220.44C559.242 220.04 558.442 219.84 557.536 219.84C556.416 219.84 555.469 220.133 554.696 220.72C553.922 221.28 553.322 222.173 552.896 223.4C552.496 224.6 552.296 226.147 552.296 228.04C552.296 230.2 552.536 232 553.016 233.44C553.522 234.853 554.216 235.92 555.096 236.64C555.976 237.36 557.029 237.72 558.256 237.72ZM581.139 239V237.6L583.019 237.28C583.445 237.2 583.725 237.04 583.859 236.8C583.992 236.533 584.059 236.053 584.059 235.36V222.88C584.059 221.947 583.979 221.32 583.819 221C583.659 220.653 583.285 220.453 582.699 220.4L580.779 220.2L580.979 218.76L587.259 218.32L587.619 218.6L587.899 222.36H587.979C588.645 220.973 589.499 219.907 590.539 219.16C591.579 218.413 592.699 218.04 593.899 218.04C595.179 218.04 596.192 218.387 596.939 219.08C597.685 219.747 598.059 220.64 598.059 221.76C598.059 222.427 597.952 223 597.739 223.48C597.552 223.933 597.245 224.293 596.819 224.56C596.419 224.8 595.912 224.92 595.299 224.92C594.499 224.92 593.885 224.747 593.459 224.4C593.059 224.053 592.859 223.613 592.859 223.08C592.859 222.84 592.899 222.6 592.979 222.36C593.059 222.12 593.179 221.84 593.339 221.52C593.499 221.2 593.699 220.84 593.939 220.44C593.325 220.2 592.672 220.173 591.979 220.36C591.312 220.547 590.685 220.92 590.099 221.48C589.539 222.013 589.072 222.693 588.699 223.52C588.352 224.32 588.179 225.187 588.179 226.12V235.44C588.179 236.08 588.245 236.52 588.379 236.76C588.512 236.973 588.792 237.107 589.219 237.16L592.539 237.6V239H581.139ZM610.076 239V237.56L612.236 237.24C612.716 237.187 613.022 237.027 613.156 236.76C613.289 236.493 613.356 236 613.356 235.28V222.96C613.356 222 613.276 221.36 613.116 221.04C612.956 220.72 612.569 220.52 611.956 220.44L610.076 220.24L610.236 218.76L617.116 218.44L617.516 218.64V235.44C617.516 236 617.582 236.427 617.716 236.72C617.849 236.987 618.169 237.16 618.676 237.24L620.836 237.6V239H610.076ZM614.876 214.28C614.049 214.28 613.369 214.027 612.836 213.52C612.302 213.013 612.036 212.347 612.036 211.52C612.036 210.72 612.302 210.067 612.836 209.56C613.369 209.027 614.049 208.76 614.876 208.76C615.756 208.76 616.449 209.013 616.956 209.52C617.489 210.027 617.756 210.693 617.756 211.52C617.756 212.32 617.489 212.987 616.956 213.52C616.422 214.027 615.729 214.28 614.876 214.28ZM642.195 248.2C640.648 248.2 639.288 248.093 638.115 247.88C636.942 247.667 635.968 247.347 635.195 246.92C634.448 246.52 633.875 246.013 633.475 245.4C633.102 244.787 632.915 244.067 632.915 243.24C632.915 242.547 633.048 241.92 633.315 241.36C633.608 240.8 634.048 240.307 634.635 239.88C635.248 239.453 635.995 239.093 636.875 238.8V238.64C636.022 238.427 635.355 238.027 634.875 237.44C634.422 236.827 634.195 236.16 634.195 235.44C634.195 234.72 634.382 234.04 634.755 233.4C635.128 232.76 635.822 231.92 636.835 230.88V230.76C635.848 230.253 635.102 229.547 634.595 228.64C634.088 227.733 633.835 226.6 633.835 225.24C633.835 223.747 634.182 222.467 634.875 221.4C635.595 220.333 636.595 219.507 637.875 218.92C639.182 218.333 640.675 218.04 642.355 218.04C642.995 218.04 643.635 218.093 644.275 218.2C644.915 218.307 645.528 218.467 646.115 218.68C646.728 218.893 647.275 219.147 647.755 219.44C648.208 218.187 648.768 217.2 649.435 216.48C650.102 215.76 650.902 215.4 651.835 215.4C652.368 215.4 652.835 215.493 653.235 215.68C653.662 215.867 653.995 216.12 654.235 216.44C654.475 216.76 654.595 217.16 654.595 217.64C654.595 218.227 654.368 218.76 653.915 219.24C653.462 219.72 652.915 219.96 652.275 219.96C651.902 219.96 651.582 219.867 651.315 219.68C651.048 219.467 650.808 219.187 650.595 218.84L650.035 217.84C649.795 218.187 649.582 218.56 649.395 218.96C649.235 219.333 649.062 219.787 648.875 220.32C649.408 220.933 649.835 221.653 650.155 222.48C650.502 223.28 650.675 224.133 650.675 225.04C650.675 226.48 650.328 227.733 649.635 228.8C648.968 229.84 648.022 230.653 646.795 231.24C645.568 231.827 644.102 232.12 642.395 232.12C641.622 232.12 640.888 232.067 640.195 231.96C639.502 231.827 638.928 231.667 638.475 231.48C637.995 232.013 637.662 232.453 637.475 232.8C637.288 233.12 637.195 233.467 637.195 233.84C637.195 234.24 637.302 234.587 637.515 234.88C637.728 235.147 638.062 235.347 638.515 235.48C638.968 235.587 639.555 235.64 640.275 235.64H645.755C648.262 235.64 650.115 236.053 651.315 236.88C652.515 237.68 653.115 238.973 653.115 240.76C653.115 241.667 652.968 242.493 652.675 243.24C652.382 244.013 651.942 244.693 651.355 245.28C650.795 245.893 650.075 246.413 649.195 246.84C648.315 247.293 647.288 247.627 646.115 247.84C644.942 248.08 643.635 248.2 642.195 248.2ZM642.555 246.32C643.888 246.32 645.035 246.133 645.995 245.76C646.982 245.413 647.742 244.92 648.275 244.28C648.835 243.667 649.115 242.933 649.115 242.08C649.115 241.12 648.782 240.413 648.115 239.96C647.475 239.507 646.528 239.28 645.275 239.28H638.475C637.915 239.707 637.475 240.2 637.155 240.76C636.862 241.347 636.715 241.973 636.715 242.64C636.715 243.92 637.182 244.853 638.115 245.44C639.048 246.027 640.528 246.32 642.555 246.32ZM642.315 230.44C643.675 230.44 644.702 229.987 645.395 229.08C646.115 228.147 646.475 226.84 646.475 225.16C646.475 223.4 646.088 222.04 645.315 221.08C644.568 220.12 643.488 219.64 642.075 219.64C640.742 219.64 639.742 220.107 639.075 221.04C638.408 221.947 638.075 223.28 638.075 225.04C638.075 226.693 638.448 228.013 639.195 229C639.968 229.96 641.008 230.44 642.315 230.44ZM665.585 239V237.56L667.545 237.28C668.079 237.2 668.412 237.027 668.545 236.76C668.705 236.493 668.785 235.987 668.785 235.24V212.64C668.785 211.733 668.692 211.133 668.505 210.84C668.319 210.547 667.892 210.36 667.225 210.28L665.425 210.04L665.585 208.56L672.545 208.36L672.945 208.72V235.4C672.945 235.96 673.012 236.4 673.145 236.72C673.279 237.013 673.625 237.2 674.185 237.28L676.265 237.6V239H665.585ZM694.907 239.56C693.173 239.56 691.8 239.08 690.787 238.12C689.773 237.133 689.267 235.813 689.267 234.16C689.267 232.72 689.627 231.56 690.347 230.68C691.067 229.8 692.253 229.133 693.907 228.68C695.587 228.2 697.84 227.893 700.667 227.76V224.16C700.667 223.067 700.52 222.187 700.227 221.52C699.96 220.853 699.52 220.36 698.907 220.04C698.32 219.72 697.547 219.56 696.587 219.56C695.813 219.56 695.04 219.68 694.267 219.92C693.52 220.16 692.96 220.467 692.587 220.84C692.933 221.32 693.213 221.733 693.427 222.08C693.64 222.427 693.787 222.72 693.867 222.96C693.947 223.2 693.987 223.4 693.987 223.56C693.987 224.067 693.773 224.507 693.347 224.88C692.947 225.227 692.4 225.4 691.707 225.4C690.96 225.4 690.387 225.213 689.987 224.84C689.587 224.467 689.387 223.933 689.387 223.24C689.387 222.333 689.733 221.48 690.427 220.68C691.147 219.88 692.093 219.24 693.267 218.76C694.467 218.28 695.76 218.04 697.147 218.04C698.88 218.04 700.307 218.307 701.427 218.84C702.573 219.347 703.427 220.147 703.987 221.24C704.547 222.307 704.827 223.667 704.827 225.32V235.24C704.827 235.907 704.973 236.387 705.267 236.68C705.587 236.973 706.013 237.12 706.547 237.12C706.84 237.12 707.133 237.093 707.427 237.04C707.747 236.96 708.093 236.853 708.467 236.72L708.787 237.8C708.227 238.387 707.6 238.827 706.907 239.12C706.213 239.413 705.533 239.56 704.867 239.56C703.667 239.56 702.747 239.253 702.107 238.64C701.493 238 701.12 237.08 700.987 235.88C700.507 236.733 699.973 237.427 699.387 237.96C698.8 238.493 698.133 238.893 697.387 239.16C696.667 239.427 695.84 239.56 694.907 239.56ZM696.667 237.16C697.44 237.16 698.12 236.987 698.707 236.64C699.32 236.267 699.8 235.773 700.147 235.16C700.493 234.52 700.667 233.8 700.667 233V229.28C699.013 229.28 697.653 229.44 696.587 229.76C695.52 230.053 694.733 230.52 694.227 231.16C693.747 231.8 693.507 232.64 693.507 233.68C693.507 234.773 693.787 235.627 694.347 236.24C694.907 236.853 695.68 237.16 696.667 237.16ZM720.347 239V237.64L732.387 220.2H727.147C726.107 220.2 725.294 220.333 724.707 220.6C724.147 220.867 723.681 221.373 723.307 222.12C722.961 222.867 722.587 223.933 722.187 225.32L720.547 225.44L721.027 218.6H736.907V220L725.027 237.32H730.067C730.894 237.32 731.587 237.253 732.147 237.12C732.707 236.96 733.174 236.68 733.547 236.28C733.921 235.88 734.267 235.307 734.587 234.56C734.907 233.813 735.254 232.827 735.627 231.6H737.227L736.667 239H720.347ZM759.678 239.56C757.758 239.56 756.078 239.147 754.638 238.32C753.225 237.493 752.132 236.307 751.358 234.76C750.585 233.187 750.198 231.32 750.198 229.16C750.198 226.84 750.612 224.853 751.438 223.2C752.265 221.52 753.425 220.24 754.918 219.36C756.412 218.48 758.145 218.04 760.118 218.04C761.612 218.04 762.918 218.333 764.038 218.92C765.158 219.507 766.025 220.347 766.638 221.44C767.278 222.507 767.598 223.773 767.598 225.24C767.598 225.747 767.558 226.267 767.478 226.8C767.425 227.333 767.345 227.893 767.238 228.48H754.638C754.638 230.24 754.892 231.72 755.398 232.92C755.932 234.093 756.665 234.987 757.598 235.6C758.532 236.187 759.625 236.48 760.878 236.48C761.972 236.48 762.998 236.28 763.958 235.88C764.945 235.48 765.892 234.853 766.798 234L767.838 235C766.852 236.52 765.652 237.667 764.238 238.44C762.852 239.187 761.332 239.56 759.678 239.56ZM754.638 226.8H763.358C763.385 226.533 763.398 226.24 763.398 225.92C763.425 225.6 763.438 225.267 763.438 224.92C763.438 223.053 763.132 221.707 762.518 220.88C761.905 220.053 760.972 219.64 759.718 219.64C758.732 219.64 757.878 219.893 757.158 220.4C756.465 220.907 755.905 221.693 755.478 222.76C755.052 223.8 754.772 225.147 754.638 226.8Z" fill="black" fill-opacity="0.25"/>
<g opacity="0.8">
<path d="M421.024 287.344C420.088 287.128 419.248 286.996 418.276 286.996C416.212 286.996 415.192 287.596 415.192 290.272V291.508H420.604V293.668H415.192V301.84H419.356V304H409.396V301.84H412.528V293.668H408.676V291.508H412.528V290.692C412.528 286.276 414.532 284.668 418.18 284.668C419.2 284.668 420.136 284.8 421.024 285.052V287.344ZM431.875 291.22C434.983 291.22 436.855 292.24 436.855 295.156V301.132C436.855 301.984 437.155 302.2 438.235 302.068V304C437.623 304.168 437.059 304.252 436.543 304.252C434.959 304.252 434.455 303.472 434.359 302.464H434.095C433.147 303.412 431.863 304.288 429.967 304.288C427.723 304.288 426.271 303.028 426.271 300.928C426.271 297.424 430.279 296.956 434.191 297.004V295.3C434.191 293.512 433.159 293.068 431.671 293.08C430.207 293.08 429.139 293.548 429.127 295L429.115 295.504H426.691V294.868C426.691 292.732 428.143 291.22 431.875 291.22ZM429.043 300.58C429.043 301.696 429.871 302.32 431.239 302.32C432.367 302.32 433.315 301.888 434.191 301.252V298.492C433.855 298.456 433.519 298.432 433.183 298.432C430.579 298.432 429.043 299.056 429.043 300.58ZM449.578 291.22C452.926 291.22 454.822 292.444 454.846 294.952L452.434 295.132C452.29 293.812 451.33 293.152 449.398 293.152C447.658 293.152 446.602 293.668 446.602 294.712C446.602 295.72 447.622 296.092 450.262 296.668C453.334 297.328 455.05 298.048 455.05 300.328C455.05 302.728 453.118 304.276 449.374 304.276C445.918 304.276 444.022 303.256 443.494 300.4L445.942 300.1C446.446 302.02 447.778 302.296 449.506 302.296C451.57 302.296 452.374 301.516 452.374 300.628C452.374 299.608 451.318 299.26 448.534 298.66C445.702 298.06 444.058 297.136 444.058 294.928C444.058 292.648 445.81 291.22 449.578 291.22ZM463.956 299.92V293.668H460.524V291.508H463.956V287.764H466.62V291.508H472.044V293.668H466.62V300.028C466.62 301.564 467.34 302.2 468.42 302.2C469.536 302.2 470.232 301.516 470.232 300.04V299.368H472.176V299.908C472.176 302.812 470.892 304.276 468.048 304.276C465.324 304.276 463.956 302.968 463.956 299.92Z" fill="#40A02B"/>
<path d="M489.952 298.396C488.632 298.396 487.564 297.52 487.564 296.08C487.564 294.628 488.632 293.776 489.952 293.776C491.26 293.776 492.316 294.628 492.316 296.08C492.316 297.52 491.26 298.396 489.952 298.396Z" fill="#BAC2DE"/>
<path d="M507.336 304V301.84H511.608L511.62 287.776H507.348V285.64L513.948 285.352L514.284 285.676L514.272 301.84H518.544V304H507.336ZM524.091 297.736C524.091 293.452 526.659 291.22 530.487 291.22C534.039 291.22 536.115 293.08 536.115 296.824V297.964H526.803C526.875 300.736 528.159 302.152 530.391 302.152C531.819 302.152 532.923 301.576 533.487 300.28L536.067 300.676C535.203 303.148 533.019 304.288 530.379 304.288C526.659 304.288 524.091 302.044 524.091 297.736ZM526.935 296.284H533.511C533.511 294.256 532.215 293.344 530.403 293.344C528.579 293.344 527.319 294.292 526.935 296.284ZM547.158 291.22C550.266 291.22 552.138 292.24 552.138 295.156V301.132C552.138 301.984 552.438 302.2 553.518 302.068V304C552.906 304.168 552.342 304.252 551.826 304.252C550.242 304.252 549.738 303.472 549.642 302.464H549.378C548.43 303.412 547.146 304.288 545.25 304.288C543.006 304.288 541.554 303.028 541.554 300.928C541.554 297.424 545.562 296.956 549.474 297.004V295.3C549.474 293.512 548.442 293.068 546.954 293.08C545.49 293.08 544.422 293.548 544.41 295L544.398 295.504H541.974V294.868C541.974 292.732 543.426 291.22 547.158 291.22ZM544.326 300.58C544.326 301.696 545.154 302.32 546.522 302.32C547.65 302.32 548.598 301.888 549.474 301.252V298.492C549.138 298.456 548.802 298.432 548.466 298.432C545.862 298.432 544.326 299.056 544.326 300.58ZM570.152 304H567.488V295.672C567.488 293.86 566.564 293.38 565.412 293.38C564.092 293.38 563 294.028 562.088 295V304H559.424V291.508H561.716L561.908 293.32H562.256C563.324 292.18 564.608 291.22 566.648 291.22C568.844 291.22 570.152 292.324 570.152 294.976V304Z" fill="#179299"/>
<path d="M587.952 298.396C586.632 298.396 585.564 297.52 585.564 296.08C585.564 294.628 586.632 293.776 587.952 293.776C589.26 293.776 590.316 294.628 590.316 296.08C590.316 297.52 589.26 298.396 587.952 298.396Z" fill="#BAC2DE"/>
<path d="M610.616 291.508L610.796 293.32H611.144C612.356 291.952 613.556 291.22 615.668 291.22C616.124 291.22 616.508 291.256 616.88 291.34V293.848C614.252 293.848 612.752 294.004 610.988 295.084V301.84H615.152V304H605.192V301.84H608.324V293.668H605.192V291.508H610.616ZM622.619 304V301.84H626.891V293.644H622.619V291.508L629.231 291.22L629.555 291.544V301.84H633.827V304H622.619ZM625.871 286.996C625.871 285.928 626.639 285.28 627.743 285.28C628.859 285.28 629.615 285.928 629.615 286.996C629.615 288.064 628.859 288.736 627.743 288.736C626.639 288.736 625.871 288.064 625.871 286.996ZM651.482 300.136C650.774 303.028 648.398 304.288 645.614 304.288C641.882 304.288 639.374 302.044 639.374 297.736C639.374 293.308 642.05 291.22 645.746 291.22C648.854 291.22 651.182 292.66 651.482 295.708L648.878 295.936C648.602 294.184 647.39 293.344 645.674 293.344C643.322 293.344 642.098 294.892 642.098 297.736C642.098 300.724 643.442 302.152 645.638 302.152C647.342 302.152 648.446 301.3 648.914 299.764L651.482 300.136ZM662.44 291.22C665.548 291.22 667.42 292.24 667.42 295.156V301.132C667.42 301.984 667.72 302.2 668.8 302.068V304C668.188 304.168 667.624 304.252 667.108 304.252C665.524 304.252 665.02 303.472 664.924 302.464H664.66C663.712 303.412 662.428 304.288 660.532 304.288C658.288 304.288 656.836 303.028 656.836 300.928C656.836 297.424 660.844 296.956 664.756 297.004V295.3C664.756 293.512 663.724 293.068 662.236 293.08C660.772 293.08 659.704 293.548 659.692 295L659.68 295.504H657.256V294.868C657.256 292.732 658.708 291.22 662.44 291.22ZM659.608 300.58C659.608 301.696 660.436 302.32 661.804 302.32C662.932 302.32 663.88 301.888 664.756 301.252V298.492C664.42 298.456 664.084 298.432 663.748 298.432C661.144 298.432 659.608 299.056 659.608 300.58ZM686.203 297.724C686.203 301.684 684.499 304.288 681.307 304.288C679.495 304.288 678.271 303.448 677.539 302.392H677.191L676.999 304H674.707V285.64H677.371V293.116H677.527C678.367 292.06 679.603 291.22 681.403 291.22C684.583 291.22 686.203 293.836 686.203 297.724ZM677.371 300.94C678.295 301.744 679.243 302.056 680.215 302.056C682.327 302.056 683.491 300.664 683.491 297.724C683.491 294.844 682.387 293.452 680.239 293.452C679.255 293.452 678.295 293.764 677.371 294.58V300.94ZM691.75 304V301.84H696.022L696.034 287.776H691.762V285.64L698.362 285.352L698.698 285.676L698.686 301.84H702.958V304H691.75ZM708.505 297.736C708.505 293.452 711.073 291.22 714.901 291.22C718.453 291.22 720.529 293.08 720.529 296.824V297.964H711.217C711.289 300.736 712.573 302.152 714.805 302.152C716.233 302.152 717.337 301.576 717.901 300.28L720.481 300.676C719.617 303.148 717.433 304.288 714.793 304.288C711.073 304.288 708.505 302.044 708.505 297.736ZM711.349 296.284H717.925C717.925 294.256 716.629 293.344 714.817 293.344C712.993 293.344 711.733 294.292 711.349 296.284Z" fill="#04A5E5"/>
<path d="M737.952 298.396C736.632 298.396 735.564 297.52 735.564 296.08C735.564 294.628 736.632 293.776 737.952 293.776C739.26 293.776 740.316 294.628 740.316 296.08C740.316 297.52 739.26 298.396 737.952 298.396Z" fill="#BAC2DE"/>
<path d="M766.304 304H763.64V295.672C763.64 293.86 762.716 293.38 761.564 293.38C760.244 293.38 759.152 294.028 758.24 295V304H755.576V291.508H757.868L758.06 293.32H758.408C759.476 292.18 760.76 291.22 762.8 291.22C764.996 291.22 766.304 292.324 766.304 294.976V304ZM784.355 297.784C784.355 302.224 781.595 304.288 778.223 304.288C774.863 304.288 772.091 302.224 772.091 297.784C772.091 293.344 774.863 291.22 778.223 291.22C781.595 291.22 784.355 293.344 784.355 297.784ZM774.803 297.784C774.803 300.892 776.231 302.152 778.223 302.152C780.227 302.152 781.643 300.892 781.643 297.784C781.643 294.664 780.227 293.344 778.223 293.344C776.231 293.344 774.803 294.664 774.803 297.784ZM795.182 291.508L795.362 293.32H795.71C796.922 291.952 798.122 291.22 800.234 291.22C800.69 291.22 801.074 291.256 801.446 291.34V293.848C798.818 293.848 797.318 294.004 795.554 295.084V301.84H799.718V304H789.758V301.84H792.89V293.668H789.758V291.508H795.182ZM807.184 304V301.84H811.456V293.644H807.184V291.508L813.796 291.22L814.12 291.544V301.84H818.392V304H807.184ZM810.436 286.996C810.436 285.928 811.204 285.28 812.308 285.28C813.424 285.28 814.18 285.928 814.18 286.996C814.18 288.064 813.424 288.736 812.308 288.736C811.204 288.736 810.436 288.064 810.436 286.996ZM827.371 304H824.707V285.64H827.371V296.26H829.615L833.491 291.508H836.479L831.619 297.292V297.448L836.899 304H833.755L829.231 298.396H827.371V304ZM841.75 304V301.84H846.022V293.644H841.75V291.508L848.362 291.22L848.686 291.544V301.84H852.958V304H841.75ZM845.002 286.996C845.002 285.928 845.77 285.28 846.874 285.28C847.99 285.28 848.746 285.928 848.746 286.996C848.746 288.064 847.99 288.736 846.874 288.736C845.77 288.736 845.002 288.064 845.002 286.996ZM861.805 299.92V293.668H858.373V291.508H861.805V287.764H864.469V291.508H869.893V293.668H864.469V300.028C864.469 301.564 865.189 302.2 866.269 302.2C867.385 302.2 868.081 301.516 868.081 300.04V299.368H870.025V299.908C870.025 302.812 868.741 304.276 865.897 304.276C863.173 304.276 861.805 302.968 861.805 299.92Z" fill="#209FB5"/>
</g>
<rect x="0" y="358" width="1280" height="2" fill="#5C5F77"/>
</svg>
