<svg width="1280" height="360" viewBox="0 0 1280 360" fill="none" xmlns="http://www.w3.org/2000/svg">
<path d="M603.955 125.5V67.3182H617.409V71.7727H609.045V121.045H617.409V125.5H603.955Z" fill="#32C572"/>
<path d="M643.929 111.045V107.813L648.249 106.053V87.4615C648.249 83.3975 646.137 81.9895 643.321 81.9895C641.113 81.9895 638.105 82.6935 634.681 84.5815V106.117L638.905 107.813V111.045H624.409V107.813L628.729 106.053V84.1335L623.129 83.2695V79.7175L633.497 77.3175L634.329 77.6694V81.3495C638.521 78.6935 642.361 77.1575 646.105 77.1575C651.577 77.1575 654.201 80.2614 654.201 86.2135V106.117L658.425 107.813V111.045H643.929Z" fill="#E6EBF9"/>
<path d="M676.045 67.3182V125.5H662.591V121.045H670.955V71.7727H662.591V67.3182H676.045Z" fill="#32C572"/>
<path d="M628.473 69.4135C629.081 63.2375 631.385 60.1335 635.097 60.1335C640.121 60.1335 641.721 65.7655 644.921 65.7655C646.809 65.7655 648.345 63.8775 648.857 60.4535L651.833 61.4775C651.225 67.6535 648.889 70.7895 645.177 70.7895C640.153 70.7895 638.617 65.1255 635.385 65.1255C633.529 65.1255 631.961 67.0135 631.449 70.4695L628.473 69.4135Z" fill="#FE640B"/>
<path d="M511.92 239V237.6L513.8 237.32C514.227 237.24 514.507 237.08 514.64 236.84C514.773 236.573 514.84 236.093 514.84 235.4V222.84C514.84 221.907 514.76 221.28 514.6 220.96C514.44 220.64 514.067 220.453 513.48 220.4L511.56 220.16L511.76 218.76L518.12 218.32L518.48 218.6L518.64 222.32H518.72C519.387 220.96 520.347 219.907 521.6 219.16C522.853 218.413 524.2 218.04 525.64 218.04C527.053 218.04 528.24 218.307 529.2 218.84C530.16 219.347 530.88 220.12 531.36 221.16C531.84 222.173 532.08 223.427 532.08 224.92V235.68C532.08 236.293 532.16 236.707 532.32 236.92C532.48 237.133 532.813 237.28 533.32 237.36L535.12 237.6V239H525.08V237.64L526.76 237.4C527.267 237.293 527.587 237.133 527.72 236.92C527.88 236.707 527.96 236.307 527.96 235.72V225.56C527.96 224.307 527.84 223.32 527.6 222.6C527.36 221.853 526.96 221.32 526.4 221C525.867 220.68 525.12 220.52 524.16 220.52C523.147 220.52 522.24 220.747 521.44 221.2C520.667 221.627 520.053 222.253 519.6 223.08C519.173 223.88 518.96 224.84 518.96 225.96V235.56C518.96 236.147 519.027 236.56 519.16 236.8C519.293 237.04 519.56 237.2 519.96 237.28L521.96 237.64V239H511.92ZM557.656 239.56C555.656 239.56 553.909 239.147 552.416 238.32C550.949 237.467 549.816 236.28 549.016 234.76C548.216 233.213 547.816 231.373 547.816 229.24C547.816 226.893 548.242 224.893 549.096 223.24C549.949 221.56 551.149 220.28 552.696 219.4C554.269 218.493 556.109 218.04 558.216 218.04C560.162 218.04 561.856 218.453 563.296 219.28C564.736 220.08 565.842 221.253 566.616 222.8C567.416 224.32 567.816 226.147 567.816 228.28C567.816 230.573 567.389 232.573 566.536 234.28C565.709 235.96 564.536 237.267 563.016 238.2C561.496 239.107 559.709 239.56 557.656 239.56ZM558.256 237.72C559.349 237.72 560.269 237.413 561.016 236.8C561.789 236.187 562.362 235.253 562.736 234C563.109 232.747 563.296 231.147 563.296 229.2C563.296 227.653 563.162 226.293 562.896 225.12C562.656 223.92 562.282 222.933 561.776 222.16C561.269 221.387 560.656 220.813 559.936 220.44C559.242 220.04 558.442 219.84 557.536 219.84C556.416 219.84 555.469 220.133 554.696 220.72C553.922 221.28 553.322 222.173 552.896 223.4C552.496 224.6 552.296 226.147 552.296 228.04C552.296 230.2 552.536 232 553.016 233.44C553.522 234.853 554.216 235.92 555.096 236.64C555.976 237.36 557.029 237.72 558.256 237.72ZM581.139 239V237.6L583.019 237.28C583.445 237.2 583.725 237.04 583.859 236.8C583.992 236.533 584.059 236.053 584.059 235.36V222.88C584.059 221.947 583.979 221.32 583.819 221C583.659 220.653 583.285 220.453 582.699 220.4L580.779 220.2L580.979 218.76L587.259 218.32L587.619 218.6L587.899 222.36H587.979C588.645 220.973 589.499 219.907 590.539 219.16C591.579 218.413 592.699 218.04 593.899 218.04C595.179 218.04 596.192 218.387 596.939 219.08C597.685 219.747 598.059 220.64 598.059 221.76C598.059 222.427 597.952 223 597.739 223.48C597.552 223.933 597.245 224.293 596.819 224.56C596.419 224.8 595.912 224.92 595.299 224.92C594.499 224.92 593.885 224.747 593.459 224.4C593.059 224.053 592.859 223.613 592.859 223.08C592.859 222.84 592.899 222.6 592.979 222.36C593.059 222.12 593.179 221.84 593.339 221.52C593.499 221.2 593.699 220.84 593.939 220.44C593.325 220.2 592.672 220.173 591.979 220.36C591.312 220.547 590.685 220.92 590.099 221.48C589.539 222.013 589.072 222.693 588.699 223.52C588.352 224.32 588.179 225.187 588.179 226.12V235.44C588.179 236.08 588.245 236.52 588.379 236.76C588.512 236.973 588.792 237.107 589.219 237.16L592.539 237.6V239H581.139ZM610.076 239V237.56L612.236 237.24C612.716 237.187 613.022 237.027 613.156 236.76C613.289 236.493 613.356 236 613.356 235.28V222.96C613.356 222 613.276 221.36 613.116 221.04C612.956 220.72 612.569 220.52 611.956 220.44L610.076 220.24L610.236 218.76L617.116 218.44L617.516 218.64V235.44C617.516 236 617.582 236.427 617.716 236.72C617.849 236.987 618.169 237.16 618.676 237.24L620.836 237.6V239H610.076ZM614.876 214.28C614.049 214.28 613.369 214.027 612.836 213.52C612.302 213.013 612.036 212.347 612.036 211.52C612.036 210.72 612.302 210.067 612.836 209.56C613.369 209.027 614.049 208.76 614.876 208.76C615.756 208.76 616.449 209.013 616.956 209.52C617.489 210.027 617.756 210.693 617.756 211.52C617.756 212.32 617.489 212.987 616.956 213.52C616.422 214.027 615.729 214.28 614.876 214.28ZM642.195 248.2C640.648 248.2 639.288 248.093 638.115 247.88C636.942 247.667 635.968 247.347 635.195 246.92C634.448 246.52 633.875 246.013 633.475 245.4C633.102 244.787 632.915 244.067 632.915 243.24C632.915 242.547 633.048 241.92 633.315 241.36C633.608 240.8 634.048 240.307 634.635 239.88C635.248 239.453 635.995 239.093 636.875 238.8V238.64C636.022 238.427 635.355 238.027 634.875 237.44C634.422 236.827 634.195 236.16 634.195 235.44C634.195 234.72 634.382 234.04 634.755 233.4C635.128 232.76 635.822 231.92 636.835 230.88V230.76C635.848 230.253 635.102 229.547 634.595 228.64C634.088 227.733 633.835 226.6 633.835 225.24C633.835 223.747 634.182 222.467 634.875 221.4C635.595 220.333 636.595 219.507 637.875 218.92C639.182 218.333 640.675 218.04 642.355 218.04C642.995 218.04 643.635 218.093 644.275 218.2C644.915 218.307 645.528 218.467 646.115 218.68C646.728 218.893 647.275 219.147 647.755 219.44C648.208 218.187 648.768 217.2 649.435 216.48C650.102 215.76 650.902 215.4 651.835 215.4C652.368 215.4 652.835 215.493 653.235 215.68C653.662 215.867 653.995 216.12 654.235 216.44C654.475 216.76 654.595 217.16 654.595 217.64C654.595 218.227 654.368 218.76 653.915 219.24C653.462 219.72 652.915 219.96 652.275 219.96C651.902 219.96 651.582 219.867 651.315 219.68C651.048 219.467 650.808 219.187 650.595 218.84L650.035 217.84C649.795 218.187 649.582 218.56 649.395 218.96C649.235 219.333 649.062 219.787 648.875 220.32C649.408 220.933 649.835 221.653 650.155 222.48C650.502 223.28 650.675 224.133 650.675 225.04C650.675 226.48 650.328 227.733 649.635 228.8C648.968 229.84 648.022 230.653 646.795 231.24C645.568 231.827 644.102 232.12 642.395 232.12C641.622 232.12 640.888 232.067 640.195 231.96C639.502 231.827 638.928 231.667 638.475 231.48C637.995 232.013 637.662 232.453 637.475 232.8C637.288 233.12 637.195 233.467 637.195 233.84C637.195 234.24 637.302 234.587 637.515 234.88C637.728 235.147 638.062 235.347 638.515 235.48C638.968 235.587 639.555 235.64 640.275 235.64H645.755C648.262 235.64 650.115 236.053 651.315 236.88C652.515 237.68 653.115 238.973 653.115 240.76C653.115 241.667 652.968 242.493 652.675 243.24C652.382 244.013 651.942 244.693 651.355 245.28C650.795 245.893 650.075 246.413 649.195 246.84C648.315 247.293 647.288 247.627 646.115 247.84C644.942 248.08 643.635 248.2 642.195 248.2ZM642.555 246.32C643.888 246.32 645.035 246.133 645.995 245.76C646.982 245.413 647.742 244.92 648.275 244.28C648.835 243.667 649.115 242.933 649.115 242.08C649.115 241.12 648.782 240.413 648.115 239.96C647.475 239.507 646.528 239.28 645.275 239.28H638.475C637.915 239.707 637.475 240.2 637.155 240.76C636.862 241.347 636.715 241.973 636.715 242.64C636.715 243.92 637.182 244.853 638.115 245.44C639.048 246.027 640.528 246.32 642.555 246.32ZM642.315 230.44C643.675 230.44 644.702 229.987 645.395 229.08C646.115 228.147 646.475 226.84 646.475 225.16C646.475 223.4 646.088 222.04 645.315 221.08C644.568 220.12 643.488 219.64 642.075 219.64C640.742 219.64 639.742 220.107 639.075 221.04C638.408 221.947 638.075 223.28 638.075 225.04C638.075 226.693 638.448 228.013 639.195 229C639.968 229.96 641.008 230.44 642.315 230.44ZM665.585 239V237.56L667.545 237.28C668.079 237.2 668.412 237.027 668.545 236.76C668.705 236.493 668.785 235.987 668.785 235.24V212.64C668.785 211.733 668.692 211.133 668.505 210.84C668.319 210.547 667.892 210.36 667.225 210.28L665.425 210.04L665.585 208.56L672.545 208.36L672.945 208.72V235.4C672.945 235.96 673.012 236.4 673.145 236.72C673.279 237.013 673.625 237.2 674.185 237.28L676.265 237.6V239H665.585ZM694.907 239.56C693.173 239.56 691.8 239.08 690.787 238.12C689.773 237.133 689.267 235.813 689.267 234.16C689.267 232.72 689.627 231.56 690.347 230.68C691.067 229.8 692.253 229.133 693.907 228.68C695.587 228.2 697.84 227.893 700.667 227.76V224.16C700.667 223.067 700.52 222.187 700.227 221.52C699.96 220.853 699.52 220.36 698.907 220.04C698.32 219.72 697.547 219.56 696.587 219.56C695.813 219.56 695.04 219.68 694.267 219.92C693.52 220.16 692.96 220.467 692.587 220.84C692.933 221.32 693.213 221.733 693.427 222.08C693.64 222.427 693.787 222.72 693.867 222.96C693.947 223.2 693.987 223.4 693.987 223.56C693.987 224.067 693.773 224.507 693.347 224.88C692.947 225.227 692.4 225.4 691.707 225.4C690.96 225.4 690.387 225.213 689.987 224.84C689.587 224.467 689.387 223.933 689.387 223.24C689.387 222.333 689.733 221.48 690.427 220.68C691.147 219.88 692.093 219.24 693.267 218.76C694.467 218.28 695.76 218.04 697.147 218.04C698.88 218.04 700.307 218.307 701.427 218.84C702.573 219.347 703.427 220.147 703.987 221.24C704.547 222.307 704.827 223.667 704.827 225.32V235.24C704.827 235.907 704.973 236.387 705.267 236.68C705.587 236.973 706.013 237.12 706.547 237.12C706.84 237.12 707.133 237.093 707.427 237.04C707.747 236.96 708.093 236.853 708.467 236.72L708.787 237.8C708.227 238.387 707.6 238.827 706.907 239.12C706.213 239.413 705.533 239.56 704.867 239.56C703.667 239.56 702.747 239.253 702.107 238.64C701.493 238 701.12 237.08 700.987 235.88C700.507 236.733 699.973 237.427 699.387 237.96C698.8 238.493 698.133 238.893 697.387 239.16C696.667 239.427 695.84 239.56 694.907 239.56ZM696.667 237.16C697.44 237.16 698.12 236.987 698.707 236.64C699.32 236.267 699.8 235.773 700.147 235.16C700.493 234.52 700.667 233.8 700.667 233V229.28C699.013 229.28 697.653 229.44 696.587 229.76C695.52 230.053 694.733 230.52 694.227 231.16C693.747 231.8 693.507 232.64 693.507 233.68C693.507 234.773 693.787 235.627 694.347 236.24C694.907 236.853 695.68 237.16 696.667 237.16ZM720.347 239V237.64L732.387 220.2H727.147C726.107 220.2 725.294 220.333 724.707 220.6C724.147 220.867 723.681 221.373 723.307 222.12C722.961 222.867 722.587 223.933 722.187 225.32L720.547 225.44L721.027 218.6H736.907V220L725.027 237.32H730.067C730.894 237.32 731.587 237.253 732.147 237.12C732.707 236.96 733.174 236.68 733.547 236.28C733.921 235.88 734.267 235.307 734.587 234.56C734.907 233.813 735.254 232.827 735.627 231.6H737.227L736.667 239H720.347ZM759.678 239.56C757.758 239.56 756.078 239.147 754.638 238.32C753.225 237.493 752.132 236.307 751.358 234.76C750.585 233.187 750.198 231.32 750.198 229.16C750.198 226.84 750.612 224.853 751.438 223.2C752.265 221.52 753.425 220.24 754.918 219.36C756.412 218.48 758.145 218.04 760.118 218.04C761.612 218.04 762.918 218.333 764.038 218.92C765.158 219.507 766.025 220.347 766.638 221.44C767.278 222.507 767.598 223.773 767.598 225.24C767.598 225.747 767.558 226.267 767.478 226.8C767.425 227.333 767.345 227.893 767.238 228.48H754.638C754.638 230.24 754.892 231.72 755.398 232.92C755.932 234.093 756.665 234.987 757.598 235.6C758.532 236.187 759.625 236.48 760.878 236.48C761.972 236.48 762.998 236.28 763.958 235.88C764.945 235.48 765.892 234.853 766.798 234L767.838 235C766.852 236.52 765.652 237.667 764.238 238.44C762.852 239.187 761.332 239.56 759.678 239.56ZM754.638 226.8H763.358C763.385 226.533 763.398 226.24 763.398 225.92C763.425 225.6 763.438 225.267 763.438 224.92C763.438 223.053 763.132 221.707 762.518 220.88C761.905 220.053 760.972 219.64 759.718 219.64C758.732 219.64 757.878 219.893 757.158 220.4C756.465 220.907 755.905 221.693 755.478 222.76C755.052 223.8 754.772 225.147 754.638 226.8Z" fill="#BAC2DE"/>
<g opacity="0.8">
<path d="M420.952 287.092C420.028 286.876 419.2 286.744 418.204 286.744C416.116 286.744 414.904 287.32 414.904 290.284V291.676H420.508V293.512H414.904V302.164H419.272V304H409.372V302.164H412.636V293.512H408.676V291.676H412.636V290.488C412.636 286.216 414.712 284.728 418.144 284.728C419.116 284.728 420.052 284.848 420.952 285.112V287.092ZM431.935 291.388C434.947 291.388 436.711 292.384 436.711 295.288V301.396C436.711 302.284 437.047 302.512 438.175 302.344V304C437.611 304.168 437.095 304.24 436.639 304.24C435.151 304.24 434.659 303.448 434.575 302.464H434.359C433.363 303.364 432.103 304.288 430.111 304.288C427.831 304.288 426.379 303.064 426.379 300.964C426.379 297.52 430.255 297.076 434.443 297.1V295.42C434.443 293.44 433.327 292.996 431.695 293.008C430.135 293.02 428.947 293.464 428.923 295.108V295.636H426.799V294.988C426.799 292.876 428.251 291.388 431.935 291.388ZM428.755 300.688C428.755 301.912 429.643 302.572 431.131 302.572C432.427 302.572 433.435 302.068 434.443 301.336V298.432C434.059 298.396 433.663 298.372 433.303 298.372C430.471 298.372 428.755 298.996 428.755 300.688ZM449.554 291.388C452.806 291.388 454.678 292.564 454.774 295.06L452.71 295.204C452.554 293.8 451.474 293.08 449.398 293.08C447.526 293.08 446.35 293.632 446.35 294.796C446.35 295.852 447.346 296.284 450.094 296.848C453.382 297.52 454.918 298.276 454.918 300.424C454.918 302.74 453.082 304.276 449.458 304.276C446.05 304.276 444.106 303.304 443.554 300.424L445.642 300.16C446.218 302.32 447.79 302.524 449.566 302.524C451.774 302.524 452.65 301.648 452.65 300.676C452.65 299.596 451.618 299.212 448.69 298.612C445.726 298 444.178 297.112 444.178 295C444.178 292.804 445.846 291.388 449.554 291.388ZM464.1 299.884V293.512H460.524V291.676H464.1V287.812H466.38V291.676H472.044V293.512H466.38V300.028C466.38 301.732 467.124 302.488 468.384 302.488C469.704 302.488 470.412 301.66 470.412 300.028V299.428H472.128V299.872C472.128 302.752 470.964 304.276 468.108 304.276C465.444 304.276 464.1 302.968 464.1 299.884Z" fill="#A6E3A1"/>
<path d="M489.952 298.396C488.632 298.396 487.564 297.52 487.564 296.08C487.564 294.628 488.632 293.776 489.952 293.776C491.26 293.776 492.316 294.628 492.316 296.08C492.316 297.52 491.26 298.396 489.952 298.396Z" fill="#BAC2DE"/>
<path d="M507.432 304V302.164H511.8L511.812 287.44H507.432V285.64L513.78 285.376L514.08 285.652V302.164H518.448V304H507.432ZM524.211 297.82C524.211 293.656 526.695 291.388 530.487 291.388C533.979 291.388 536.019 293.212 536.019 296.836V297.916H526.539C526.575 300.916 528.003 302.428 530.415 302.428C531.987 302.428 533.175 301.792 533.763 300.388L535.971 300.76C535.131 303.064 533.115 304.288 530.403 304.288C526.719 304.288 524.211 302.056 524.211 297.82ZM526.659 296.404H533.799C533.787 294.208 532.347 293.248 530.415 293.248C528.399 293.248 527.055 294.316 526.659 296.404ZM547.218 291.388C550.23 291.388 551.994 292.384 551.994 295.288V301.396C551.994 302.284 552.33 302.512 553.458 302.344V304C552.894 304.168 552.378 304.24 551.922 304.24C550.434 304.24 549.942 303.448 549.858 302.464H549.642C548.646 303.364 547.386 304.288 545.394 304.288C543.114 304.288 541.662 303.064 541.662 300.964C541.662 297.52 545.538 297.076 549.726 297.1V295.42C549.726 293.44 548.61 292.996 546.978 293.008C545.418 293.02 544.23 293.464 544.206 295.108V295.636H542.082V294.988C542.082 292.876 543.534 291.388 547.218 291.388ZM544.038 300.688C544.038 301.912 544.926 302.572 546.414 302.572C547.71 302.572 548.718 302.068 549.726 301.336V298.432C549.342 298.396 548.946 298.372 548.586 298.372C545.754 298.372 544.038 298.996 544.038 300.688ZM569.96 304H567.692V295.78C567.692 293.776 566.648 293.248 565.4 293.248C563.96 293.248 562.808 293.956 561.884 295.024V304H559.616V291.676H561.536L561.74 293.44H562.04C563.012 292.396 564.296 291.388 566.384 291.388C568.58 291.388 569.96 292.504 569.96 295.18V304Z" fill="#94E2D5"/>
<path d="M587.952 298.396C586.632 298.396 585.564 297.52 585.564 296.08C585.564 294.628 586.632 293.776 587.952 293.776C589.26 293.776 590.316 294.628 590.316 296.08C590.316 297.52 589.26 298.396 587.952 298.396Z" fill="#BAC2DE"/>
<path d="M610.424 291.676L610.616 293.428H610.928C612.2 292.108 613.424 291.388 615.584 291.388C616.028 291.388 616.4 291.424 616.772 291.496V293.62C614.036 293.62 612.584 293.8 610.772 295.048V302.164H615.14V304H605.228V302.164H608.504V293.512H605.228V291.676H610.424ZM622.715 304V302.164H627.083V293.476H622.715V291.676L629.063 291.4L629.363 291.688V302.164H633.731V304H622.715ZM626.099 287.02C626.099 286.06 626.783 285.484 627.779 285.484C628.763 285.484 629.447 286.06 629.447 287.02C629.447 287.98 628.763 288.568 627.779 288.568C626.783 288.568 626.099 287.98 626.099 287.02ZM651.386 300.244C650.702 302.968 648.458 304.288 645.65 304.288C642.014 304.288 639.494 302.08 639.494 297.808C639.494 293.512 642.062 291.388 645.77 291.388C648.782 291.388 651.074 292.792 651.386 295.756L649.142 295.948C648.854 294.052 647.51 293.248 645.71 293.248C643.166 293.248 641.834 294.856 641.834 297.808C641.834 300.928 643.322 302.428 645.662 302.428C647.45 302.428 648.686 301.564 649.19 299.896L651.386 300.244ZM662.5 291.388C665.512 291.388 667.276 292.384 667.276 295.288V301.396C667.276 302.284 667.612 302.512 668.74 302.344V304C668.176 304.168 667.66 304.24 667.204 304.24C665.716 304.24 665.224 303.448 665.14 302.464H664.924C663.928 303.364 662.668 304.288 660.676 304.288C658.396 304.288 656.944 303.064 656.944 300.964C656.944 297.52 660.82 297.076 665.008 297.1V295.42C665.008 293.44 663.892 292.996 662.26 293.008C660.7 293.02 659.512 293.464 659.488 295.108V295.636H657.364V294.988C657.364 292.876 658.816 291.388 662.5 291.388ZM659.32 300.688C659.32 301.912 660.208 302.572 661.696 302.572C662.992 302.572 664 302.068 665.008 301.336V298.432C664.624 298.396 664.228 298.372 663.868 298.372C661.036 298.372 659.32 298.996 659.32 300.688ZM686.083 297.82C686.083 301.828 684.259 304.288 681.151 304.288C679.339 304.288 678.115 303.46 677.323 302.368H676.999L676.819 304H674.899V285.64H677.167V293.308H677.311C678.199 292.216 679.459 291.388 681.247 291.388C684.367 291.388 686.083 293.896 686.083 297.82ZM677.167 300.964C678.175 301.996 679.207 302.368 680.287 302.368C682.483 302.368 683.743 300.88 683.743 297.82C683.743 294.832 682.555 293.32 680.323 293.32C679.219 293.32 678.199 293.692 677.167 294.724V300.964ZM691.846 304V302.164H696.214L696.226 287.44H691.846V285.64L698.194 285.376L698.494 285.652V302.164H702.862V304H691.846ZM708.625 297.82C708.625 293.656 711.109 291.388 714.901 291.388C718.393 291.388 720.433 293.212 720.433 296.836V297.916H710.953C710.989 300.916 712.417 302.428 714.829 302.428C716.401 302.428 717.589 301.792 718.177 300.388L720.385 300.76C719.545 303.064 717.529 304.288 714.817 304.288C711.133 304.288 708.625 302.056 708.625 297.82ZM711.073 296.404H718.213C718.201 294.208 716.761 293.248 714.829 293.248C712.813 293.248 711.469 294.316 711.073 296.404Z" fill="#89DCEB"/>
<path d="M737.952 298.396C736.632 298.396 735.564 297.52 735.564 296.08C735.564 294.628 736.632 293.776 737.952 293.776C739.26 293.776 740.316 294.628 740.316 296.08C740.316 297.52 739.26 298.396 737.952 298.396Z" fill="#BAC2DE"/>
<path d="M766.112 304H763.844V295.78C763.844 293.776 762.8 293.248 761.552 293.248C760.112 293.248 758.96 293.956 758.036 295.024V304H755.768V291.676H757.688L757.892 293.44H758.192C759.164 292.396 760.448 291.388 762.536 291.388C764.732 291.388 766.112 292.504 766.112 295.18V304ZM784.235 297.856C784.235 302.176 781.535 304.288 778.223 304.288C774.923 304.288 772.211 302.176 772.211 297.856C772.211 293.548 774.923 291.388 778.223 291.388C781.535 291.388 784.235 293.548 784.235 297.856ZM774.539 297.856C774.539 301 776.063 302.428 778.223 302.428C780.383 302.428 781.895 301 781.895 297.856C781.895 294.712 780.383 293.248 778.223 293.248C776.063 293.248 774.539 294.712 774.539 297.856ZM794.99 291.676L795.182 293.428H795.494C796.766 292.108 797.99 291.388 800.15 291.388C800.594 291.388 800.966 291.424 801.338 291.496V293.62C798.602 293.62 797.15 293.8 795.338 295.048V302.164H799.706V304H789.794V302.164H793.07V293.512H789.794V291.676H794.99ZM807.28 304V302.164H811.648V293.476H807.28V291.676L813.628 291.4L813.928 291.688V302.164H818.296V304H807.28ZM810.664 287.02C810.664 286.06 811.348 285.484 812.344 285.484C813.328 285.484 814.012 286.06 814.012 287.02C814.012 287.98 813.328 288.568 812.344 288.568C811.348 288.568 810.664 287.98 810.664 287.02ZM827.167 304H824.899V285.64H827.167V296.452H829.579L833.743 291.676H836.335L831.379 297.292V297.448L836.839 304H834.091L829.339 298.288H827.167V304ZM841.846 304V302.164H846.214V293.476H841.846V291.676L848.194 291.4L848.494 291.688V302.164H852.862V304H841.846ZM845.23 287.02C845.23 286.06 845.914 285.484 846.91 285.484C847.894 285.484 848.578 286.06 848.578 287.02C848.578 287.98 847.894 288.568 846.91 288.568C845.914 288.568 845.23 287.98 845.23 287.02ZM861.949 299.884V293.512H858.373V291.676H861.949V287.812H864.229V291.676H869.893V293.512H864.229V300.028C864.229 301.732 864.973 302.488 866.233 302.488C867.553 302.488 868.261 301.66 868.261 300.028V299.428H869.977V299.872C869.977 302.752 868.813 304.276 865.957 304.276C863.293 304.276 861.949 302.968 861.949 299.884Z" fill="#74C7EC"/>
</g>
</svg>
