<svg width="1280" height="330" viewBox="0 0 1280 330" fill="none" xmlns="http://www.w3.org/2000/svg">
<rect width="1280" height="330" rx="8" fill="#1E1E2E"/>
<rect width="192" height="192" transform="translate(544)" fill="#1E1E2E"/>
<path d="M603.955 125.5V67.3182H617.409V71.7727H609.045V121.045H617.409V125.5H603.955Z" fill="#32C572"/>
<path d="M643.929 111.045V107.813L648.249 106.053V87.4615C648.249 83.3975 646.137 81.9895 643.321 81.9895C641.113 81.9895 638.105 82.6935 634.681 84.5815V106.117L638.905 107.813V111.045H624.409V107.813L628.729 106.053V84.1335L623.129 83.2695V79.7175L633.497 77.3175L634.329 77.6694V81.3495C638.521 78.6935 642.361 77.1575 646.105 77.1575C651.577 77.1575 654.201 80.2614 654.201 86.2135V106.117L658.425 107.813V111.045H643.929Z" fill="#E6EBF9"/>
<path d="M676.045 67.3182V125.5H662.591V121.045H670.955V71.7727H662.591V67.3182H676.045Z" fill="#32C572"/>
<path d="M628.473 69.4135C629.081 63.2375 631.385 60.1335 635.097 60.1335C640.121 60.1335 641.721 65.7655 644.921 65.7655C646.809 65.7655 648.345 63.8775 648.857 60.4535L651.833 61.4775C651.225 67.6535 648.889 70.7895 645.177 70.7895C640.153 70.7895 638.617 65.1255 635.385 65.1255C633.529 65.1255 631.961 67.0135 631.449 70.4695L628.473 69.4135Z" fill="#FE640B"/>
<path d="M562.724 220V218.944L563.852 218.728C564.108 218.696 564.276 218.608 564.356 218.464C564.436 218.304 564.476 218.016 564.476 217.6V210.616C564.476 210.04 564.428 209.664 564.332 209.488C564.236 209.296 564.012 209.176 563.66 209.128L562.508 208.984L562.652 207.88L566.3 207.616L566.564 207.784L566.708 209.968H566.78C567.196 209.184 567.78 208.568 568.532 208.12C569.284 207.672 570.092 207.448 570.956 207.448C571.82 207.448 572.54 207.608 573.116 207.928C573.692 208.248 574.124 208.712 574.412 209.32C574.716 209.928 574.868 210.68 574.868 211.576V217.768C574.868 218.12 574.916 218.368 575.012 218.512C575.108 218.64 575.308 218.72 575.612 218.752L576.716 218.944V220H570.668V218.968L571.676 218.8C571.98 218.736 572.172 218.64 572.252 218.512C572.348 218.368 572.396 218.128 572.396 217.792V212.152C572.396 211.432 572.324 210.856 572.18 210.424C572.036 209.976 571.796 209.656 571.46 209.464C571.124 209.272 570.676 209.176 570.116 209.176C569.476 209.176 568.916 209.304 568.436 209.56C567.972 209.816 567.604 210.192 567.332 210.688C567.076 211.184 566.948 211.768 566.948 212.44V217.696C566.948 218.048 566.988 218.296 567.068 218.44C567.148 218.584 567.308 218.68 567.548 218.728L568.748 218.968V220H562.724ZM590.257 220.336C589.057 220.336 588.009 220.088 587.113 219.592C586.233 219.08 585.553 218.368 585.073 217.456C584.593 216.528 584.353 215.432 584.353 214.168C584.353 212.76 584.601 211.56 585.097 210.568C585.609 209.56 586.337 208.792 587.281 208.264C588.225 207.72 589.337 207.448 590.617 207.448C591.785 207.448 592.801 207.696 593.665 208.192C594.529 208.688 595.193 209.392 595.657 210.304C596.137 211.216 596.377 212.304 596.377 213.568C596.377 214.944 596.129 216.144 595.633 217.168C595.137 218.176 594.433 218.96 593.521 219.52C592.609 220.064 591.521 220.336 590.257 220.336ZM590.617 218.944C591.289 218.944 591.849 218.768 592.297 218.416C592.761 218.048 593.105 217.512 593.329 216.808C593.569 216.088 593.689 215.2 593.689 214.144C593.689 213.28 593.609 212.52 593.449 211.864C593.289 211.192 593.057 210.632 592.753 210.184C592.465 209.72 592.105 209.376 591.673 209.152C591.241 208.912 590.761 208.792 590.233 208.792C589.545 208.792 588.961 208.968 588.481 209.32C588.017 209.656 587.657 210.168 587.401 210.856C587.161 211.528 587.041 212.392 587.041 213.448C587.041 214.632 587.185 215.632 587.473 216.448C587.761 217.264 588.169 217.888 588.697 218.32C589.241 218.736 589.881 218.944 590.617 218.944ZM604.443 220V218.92L605.571 218.728C605.827 218.68 605.995 218.584 606.075 218.44C606.155 218.28 606.195 217.992 606.195 217.576V210.64C606.195 210.08 606.147 209.704 606.051 209.512C605.955 209.32 605.731 209.2 605.379 209.152L604.227 208.984L604.371 207.88L607.947 207.616L608.211 207.784L608.427 209.992H608.499C608.931 209.176 609.451 208.552 610.059 208.12C610.683 207.672 611.355 207.448 612.075 207.448C612.859 207.448 613.475 207.664 613.923 208.096C614.387 208.512 614.619 209.064 614.619 209.752C614.619 210.168 614.555 210.52 614.427 210.808C614.299 211.096 614.107 211.32 613.851 211.48C613.611 211.624 613.307 211.696 612.939 211.696C612.459 211.696 612.091 211.6 611.835 211.408C611.595 211.2 611.475 210.936 611.475 210.616C611.475 210.488 611.491 210.36 611.523 210.232C611.555 210.088 611.611 209.928 611.691 209.752C611.787 209.576 611.891 209.376 612.003 209.152C611.635 208.992 611.251 208.968 610.851 209.08C610.467 209.192 610.107 209.416 609.771 209.752C609.451 210.088 609.187 210.496 608.979 210.976C608.771 211.456 608.667 211.968 608.667 212.512V217.624C608.667 217.992 608.707 218.248 608.787 218.392C608.867 218.536 609.035 218.624 609.291 218.656L611.307 218.944V220H604.443ZM621.756 220V218.896L623.076 218.704C623.38 218.656 623.572 218.552 623.652 218.392C623.732 218.232 623.772 217.936 623.772 217.504V210.688C623.772 210.112 623.724 209.728 623.628 209.536C623.532 209.344 623.3 209.224 622.932 209.176L621.804 209.032L621.948 207.904L625.98 207.688L626.268 207.832V217.576C626.268 217.896 626.308 218.152 626.388 218.344C626.468 218.52 626.668 218.64 626.988 218.704L628.308 218.92V220H621.756ZM624.684 205.168C624.172 205.168 623.756 205.016 623.436 204.712C623.116 204.408 622.956 204.016 622.956 203.536C622.956 203.04 623.116 202.64 623.436 202.336C623.756 202.016 624.172 201.856 624.684 201.856C625.212 201.856 625.628 202.008 625.932 202.312C626.252 202.616 626.412 203.016 626.412 203.512C626.412 203.992 626.252 204.392 625.932 204.712C625.612 205.016 625.196 205.168 624.684 205.168ZM641.051 225.52C640.107 225.52 639.283 225.456 638.579 225.328C637.891 225.2 637.315 225.008 636.851 224.752C636.387 224.512 636.035 224.208 635.795 223.84C635.571 223.472 635.459 223.04 635.459 222.544C635.459 222.128 635.539 221.752 635.699 221.416C635.875 221.08 636.139 220.776 636.491 220.504C636.843 220.248 637.275 220.024 637.787 219.832V219.736C637.323 219.592 636.955 219.344 636.683 218.992C636.411 218.64 636.275 218.256 636.275 217.84C636.275 217.408 636.379 217.008 636.587 216.64C636.811 216.256 637.219 215.76 637.811 215.152V215.08C637.235 214.776 636.795 214.352 636.491 213.808C636.187 213.248 636.035 212.568 636.035 211.768C636.035 210.888 636.243 210.128 636.659 209.488C637.091 208.832 637.691 208.328 638.459 207.976C639.243 207.624 640.139 207.448 641.147 207.448C641.515 207.448 641.883 207.48 642.251 207.544C642.635 207.608 643.003 207.696 643.355 207.808C643.707 207.92 644.027 208.072 644.315 208.264C644.603 207.512 644.955 206.928 645.371 206.512C645.787 206.096 646.275 205.888 646.835 205.888C647.155 205.888 647.435 205.944 647.675 206.056C647.931 206.168 648.131 206.32 648.275 206.512C648.419 206.704 648.491 206.936 648.491 207.208C648.491 207.576 648.347 207.904 648.059 208.192C647.787 208.464 647.467 208.6 647.099 208.6C646.875 208.6 646.683 208.544 646.523 208.432C646.363 208.304 646.219 208.136 646.091 207.928L645.827 207.4C645.683 207.624 645.555 207.856 645.443 208.096C645.331 208.32 645.219 208.584 645.107 208.888C645.427 209.256 645.675 209.672 645.851 210.136C646.043 210.6 646.139 211.104 646.139 211.648C646.139 212.496 645.931 213.24 645.515 213.88C645.115 214.504 644.547 214.992 643.811 215.344C643.075 215.696 642.195 215.872 641.171 215.872C640.755 215.872 640.347 215.848 639.947 215.8C639.563 215.736 639.259 215.664 639.035 215.584C638.763 215.888 638.571 216.136 638.459 216.328C638.347 216.52 638.291 216.728 638.291 216.952C638.291 217.192 638.347 217.392 638.459 217.552C638.587 217.696 638.779 217.8 639.035 217.864C639.291 217.928 639.627 217.96 640.043 217.96H643.283C644.755 217.96 645.843 218.216 646.547 218.728C647.251 219.224 647.603 220 647.603 221.056C647.603 221.6 647.515 222.096 647.339 222.544C647.163 223.008 646.899 223.416 646.547 223.768C646.195 224.136 645.755 224.448 645.227 224.704C644.715 224.976 644.107 225.176 643.403 225.304C642.699 225.448 641.915 225.52 641.051 225.52ZM641.267 224.128C642.051 224.128 642.731 224.024 643.307 223.816C643.883 223.624 644.323 223.352 644.627 223C644.947 222.648 645.107 222.232 645.107 221.752C645.107 221.224 644.923 220.832 644.555 220.576C644.187 220.336 643.635 220.216 642.899 220.216H638.891C638.555 220.472 638.291 220.76 638.099 221.08C637.923 221.416 637.835 221.776 637.835 222.16C637.835 222.848 638.107 223.344 638.651 223.648C639.195 223.968 640.067 224.128 641.267 224.128ZM641.123 214.624C641.923 214.624 642.539 214.376 642.971 213.88C643.403 213.368 643.619 212.648 643.619 211.72C643.619 210.744 643.387 209.992 642.923 209.464C642.459 208.92 641.811 208.648 640.979 208.648C640.179 208.648 639.571 208.904 639.155 209.416C638.755 209.928 638.555 210.672 638.555 211.648C638.555 212.56 638.787 213.288 639.251 213.832C639.715 214.36 640.339 214.624 641.123 214.624ZM655.155 220V218.896L656.427 218.704C656.747 218.656 656.947 218.552 657.027 218.392C657.123 218.232 657.171 217.928 657.171 217.48V204.472C657.171 203.928 657.107 203.568 656.979 203.392C656.867 203.216 656.603 203.096 656.187 203.032L655.131 202.888L655.275 201.76L659.403 201.616L659.667 201.856V217.576C659.667 217.912 659.707 218.168 659.787 218.344C659.867 218.52 660.075 218.64 660.411 218.704L661.683 218.92V220H655.155ZM672.866 220.336C671.826 220.336 670.994 220.04 670.37 219.448C669.762 218.856 669.458 218.072 669.458 217.096C669.458 216.216 669.674 215.504 670.106 214.96C670.554 214.416 671.282 214.008 672.29 213.736C673.298 213.464 674.65 213.288 676.346 213.208V211.36C676.346 210.72 676.258 210.2 676.082 209.8C675.906 209.384 675.634 209.08 675.266 208.888C674.914 208.68 674.442 208.576 673.85 208.576C673.418 208.576 672.986 208.648 672.554 208.792C672.122 208.92 671.802 209.096 671.594 209.32C671.77 209.576 671.906 209.8 672.002 209.992C672.114 210.184 672.194 210.344 672.242 210.472C672.29 210.584 672.314 210.688 672.314 210.784C672.314 211.088 672.186 211.352 671.93 211.576C671.674 211.784 671.346 211.888 670.946 211.888C670.482 211.888 670.13 211.776 669.89 211.552C669.65 211.328 669.53 211.008 669.53 210.592C669.53 210.032 669.738 209.52 670.154 209.056C670.586 208.576 671.162 208.192 671.882 207.904C672.602 207.6 673.386 207.448 674.234 207.448C675.258 207.448 676.106 207.608 676.778 207.928C677.466 208.232 677.978 208.712 678.314 209.368C678.65 210.008 678.818 210.824 678.818 211.816V217.6C678.818 217.968 678.906 218.24 679.082 218.416C679.274 218.592 679.538 218.68 679.874 218.68C680.05 218.68 680.226 218.664 680.402 218.632C680.578 218.6 680.77 218.552 680.978 218.488L681.218 219.328C680.914 219.632 680.546 219.872 680.114 220.048C679.682 220.24 679.274 220.336 678.89 220.336C678.186 220.336 677.642 220.152 677.258 219.784C676.874 219.416 676.634 218.88 676.538 218.176C676.266 218.672 675.946 219.08 675.578 219.4C675.226 219.704 674.826 219.936 674.378 220.096C673.93 220.256 673.426 220.336 672.866 220.336ZM673.898 218.728C674.362 218.728 674.778 218.624 675.146 218.416C675.514 218.192 675.802 217.896 676.01 217.528C676.234 217.16 676.346 216.736 676.346 216.256V214.36C675.354 214.36 674.538 214.448 673.898 214.624C673.258 214.8 672.786 215.064 672.482 215.416C672.178 215.768 672.026 216.232 672.026 216.808C672.026 217.416 672.186 217.888 672.506 218.224C672.842 218.56 673.306 218.728 673.898 218.728ZM688.201 220V218.992L695.353 208.984H692.449C691.857 208.984 691.385 209.056 691.033 209.2C690.697 209.344 690.417 209.624 690.193 210.04C689.985 210.44 689.769 211.032 689.545 211.816L688.297 211.912L688.585 207.784H698.161V208.84L691.081 218.752H693.937C694.433 218.752 694.841 218.712 695.161 218.632C695.497 218.552 695.777 218.408 696.001 218.2C696.225 217.976 696.425 217.656 696.601 217.24C696.793 216.824 697.009 216.272 697.249 215.584H698.449L698.113 220H688.201ZM711.942 220.336C710.758 220.336 709.734 220.088 708.87 219.592C708.022 219.08 707.358 218.352 706.878 217.408C706.414 216.464 706.182 215.36 706.182 214.096C706.182 212.72 706.43 211.544 706.926 210.568C707.422 209.576 708.118 208.808 709.014 208.264C709.91 207.72 710.95 207.448 712.134 207.448C713.046 207.448 713.838 207.624 714.51 207.976C715.198 208.328 715.726 208.832 716.094 209.488C716.462 210.144 716.646 210.904 716.646 211.768C716.646 212.088 716.622 212.44 716.574 212.824C716.542 213.192 716.478 213.568 716.382 213.952H708.846C708.862 214.912 709.022 215.728 709.326 216.4C709.646 217.072 710.086 217.584 710.646 217.936C711.206 218.272 711.854 218.44 712.59 218.44C713.23 218.44 713.838 218.32 714.414 218.08C715.006 217.824 715.55 217.464 716.046 217L716.814 217.792C716.238 218.592 715.518 219.216 714.654 219.664C713.806 220.112 712.902 220.336 711.942 220.336ZM708.846 212.704H714.102C714.134 212.528 714.15 212.352 714.15 212.176C714.166 211.984 714.174 211.784 714.174 211.576C714.174 210.584 713.982 209.848 713.598 209.368C713.214 208.888 712.646 208.648 711.894 208.648C711.302 208.648 710.79 208.8 710.358 209.104C709.942 209.408 709.606 209.864 709.35 210.472C709.094 211.064 708.926 211.808 708.846 212.704Z" fill="#BAC2DE"/>
<g opacity="0.8">
<path d="M496.847 264.637C496.308 264.511 495.825 264.434 495.244 264.434C494.026 264.434 493.319 264.77 493.319 266.499V267.311H496.588V268.382H493.319V273.429H495.867V274.5H490.092V273.429H491.996V268.382H489.686V267.311H491.996V266.618C491.996 264.126 493.207 263.258 495.209 263.258C495.776 263.258 496.322 263.328 496.847 263.482V264.637ZM503.254 267.143C505.011 267.143 506.04 267.724 506.04 269.418V272.981C506.04 273.499 506.236 273.632 506.894 273.534V274.5C506.565 274.598 506.264 274.64 505.998 274.64C505.13 274.64 504.843 274.178 504.794 273.604H504.668C504.087 274.129 503.352 274.668 502.19 274.668C500.86 274.668 500.013 273.954 500.013 272.729C500.013 270.72 502.274 270.461 504.717 270.475V269.495C504.717 268.34 504.066 268.081 503.114 268.088C502.204 268.095 501.511 268.354 501.497 269.313V269.621H500.258V269.243C500.258 268.011 501.105 267.143 503.254 267.143ZM501.399 272.568C501.399 273.282 501.917 273.667 502.785 273.667C503.541 273.667 504.129 273.373 504.717 272.946V271.252C504.493 271.231 504.262 271.217 504.052 271.217C502.4 271.217 501.399 271.581 501.399 272.568ZM513.531 267.143C515.428 267.143 516.52 267.829 516.576 269.285L515.372 269.369C515.281 268.55 514.651 268.13 513.44 268.13C512.348 268.13 511.662 268.452 511.662 269.131C511.662 269.747 512.243 269.999 513.846 270.328C515.764 270.72 516.66 271.161 516.66 272.414C516.66 273.765 515.589 274.661 513.475 274.661C511.487 274.661 510.353 274.094 510.031 272.414L511.249 272.26C511.585 273.52 512.502 273.639 513.538 273.639C514.826 273.639 515.337 273.128 515.337 272.561C515.337 271.931 514.735 271.707 513.027 271.357C511.298 271 510.395 270.482 510.395 269.25C510.395 267.969 511.368 267.143 513.531 267.143ZM522.017 272.099V268.382H519.931V267.311H522.017V265.057H523.347V267.311H526.651V268.382H523.347V272.183C523.347 273.177 523.781 273.618 524.516 273.618C525.286 273.618 525.699 273.135 525.699 272.183V271.833H526.7V272.092C526.7 273.772 526.021 274.661 524.355 274.661C522.801 274.661 522.017 273.898 522.017 272.099Z" fill="#A6E3A1"/>
<path d="M541.589 271.797C540.599 271.797 539.798 271.14 539.798 270.06C539.798 268.971 540.599 268.332 541.589 268.332C542.57 268.332 543.362 268.971 543.362 270.06C543.362 271.14 542.57 271.797 541.589 271.797Z" fill="#BAC2DE"/>
<path d="M557.127 274.5V273.429H559.675L559.682 264.84H557.127V263.79L560.83 263.636L561.005 263.797V273.429H563.553V274.5H557.127ZM566.915 270.895C566.915 268.466 568.364 267.143 570.576 267.143C572.613 267.143 573.803 268.207 573.803 270.321V270.951H568.273C568.294 272.701 569.127 273.583 570.534 273.583C571.451 273.583 572.144 273.212 572.487 272.393L573.775 272.61C573.285 273.954 572.109 274.668 570.527 274.668C568.378 274.668 566.915 273.366 566.915 270.895ZM568.343 270.069H572.508C572.501 268.788 571.661 268.228 570.534 268.228C569.358 268.228 568.574 268.851 568.343 270.069ZM580.335 267.143C582.092 267.143 583.121 267.724 583.121 269.418V272.981C583.121 273.499 583.317 273.632 583.975 273.534V274.5C583.646 274.598 583.345 274.64 583.079 274.64C582.211 274.64 581.924 274.178 581.875 273.604H581.749C581.168 274.129 580.433 274.668 579.271 274.668C577.941 274.668 577.094 273.954 577.094 272.729C577.094 270.72 579.355 270.461 581.798 270.475V269.495C581.798 268.34 581.147 268.081 580.195 268.088C579.285 268.095 578.592 268.354 578.578 269.313V269.621H577.339V269.243C577.339 268.011 578.186 267.143 580.335 267.143ZM578.48 272.568C578.48 273.282 578.998 273.667 579.866 273.667C580.622 273.667 581.21 273.373 581.798 272.946V271.252C581.574 271.231 581.343 271.217 581.133 271.217C579.481 271.217 578.48 271.581 578.48 272.568ZM593.602 274.5H592.279V269.705C592.279 268.536 591.67 268.228 590.942 268.228C590.102 268.228 589.43 268.641 588.891 269.264V274.5H587.568V267.311H588.688L588.807 268.34H588.982C589.549 267.731 590.298 267.143 591.516 267.143C592.797 267.143 593.602 267.794 593.602 269.355V274.5Z" fill="#94E2D5"/>
<path d="M608.589 271.797C607.599 271.797 606.798 271.14 606.798 270.06C606.798 268.971 607.599 268.332 608.589 268.332C609.57 268.332 610.362 268.971 610.362 270.06C610.362 271.14 609.57 271.797 608.589 271.797Z" fill="#BAC2DE"/>
<path d="M627.039 267.311L627.151 268.333H627.333C628.075 267.563 628.789 267.143 630.049 267.143C630.308 267.143 630.525 267.164 630.742 267.206V268.445C629.146 268.445 628.299 268.55 627.242 269.278V273.429H629.79V274.5H624.008V273.429H625.919V268.382H624.008V267.311H627.039ZM634.209 274.5V273.429H636.757V268.361H634.209V267.311L637.912 267.15L638.087 267.318V273.429H640.635V274.5H634.209ZM636.183 264.595C636.183 264.035 636.582 263.699 637.163 263.699C637.737 263.699 638.136 264.035 638.136 264.595C638.136 265.155 637.737 265.498 637.163 265.498C636.582 265.498 636.183 265.155 636.183 264.595ZM650.933 272.309C650.534 273.898 649.225 274.668 647.587 274.668C645.466 274.668 643.996 273.38 643.996 270.888C643.996 268.382 645.494 267.143 647.657 267.143C649.414 267.143 650.751 267.962 650.933 269.691L649.624 269.803C649.456 268.697 648.672 268.228 647.622 268.228C646.138 268.228 645.361 269.166 645.361 270.888C645.361 272.708 646.229 273.583 647.594 273.583C648.637 273.583 649.358 273.079 649.652 272.106L650.933 272.309ZM657.417 267.143C659.174 267.143 660.203 267.724 660.203 269.418V272.981C660.203 273.499 660.399 273.632 661.057 273.534V274.5C660.728 274.598 660.427 274.64 660.161 274.64C659.293 274.64 659.006 274.178 658.957 273.604H658.831C658.25 274.129 657.515 274.668 656.353 274.668C655.023 274.668 654.176 273.954 654.176 272.729C654.176 270.72 656.437 270.461 658.88 270.475V269.495C658.88 268.34 658.229 268.081 657.277 268.088C656.367 268.095 655.674 268.354 655.66 269.313V269.621H654.421V269.243C654.421 268.011 655.268 267.143 657.417 267.143ZM655.562 272.568C655.562 273.282 656.08 273.667 656.948 273.667C657.704 273.667 658.292 273.373 658.88 272.946V271.252C658.656 271.231 658.425 271.217 658.215 271.217C656.563 271.217 655.562 271.581 655.562 272.568ZM671.174 270.895C671.174 273.233 670.11 274.668 668.297 274.668C667.24 274.668 666.526 274.185 666.064 273.548H665.875L665.77 274.5H664.65V263.79H665.973V268.263H666.057C666.575 267.626 667.31 267.143 668.353 267.143C670.173 267.143 671.174 268.606 671.174 270.895ZM665.973 272.729C666.561 273.331 667.163 273.548 667.793 273.548C669.074 273.548 669.809 272.68 669.809 270.895C669.809 269.152 669.116 268.27 667.814 268.27C667.17 268.27 666.575 268.487 665.973 269.089V272.729ZM674.535 274.5V273.429H677.083L677.09 264.84H674.535V263.79L678.238 263.636L678.413 263.797V273.429H680.961V274.5H674.535ZM684.323 270.895C684.323 268.466 685.772 267.143 687.984 267.143C690.021 267.143 691.211 268.207 691.211 270.321V270.951H685.681C685.702 272.701 686.535 273.583 687.942 273.583C688.859 273.583 689.552 273.212 689.895 272.393L691.183 272.61C690.693 273.954 689.517 274.668 687.935 274.668C685.786 274.668 684.323 273.366 684.323 270.895ZM685.751 270.069H689.916C689.909 268.788 689.069 268.228 687.942 268.228C686.766 268.228 685.982 268.851 685.751 270.069Z" fill="#89DCEB"/>
<path d="M706.589 271.797C705.599 271.797 704.798 271.14 704.798 270.06C704.798 268.971 705.599 268.332 706.589 268.332C707.57 268.332 708.362 268.971 708.362 270.06C708.362 271.14 707.57 271.797 706.589 271.797Z" fill="#BAC2DE"/>
<path d="M728.357 274.5H727.034V269.705C727.034 268.536 726.425 268.228 725.697 268.228C724.857 268.228 724.185 268.641 723.646 269.264V274.5H722.323V267.311H723.443L723.562 268.34H723.737C724.304 267.731 725.053 267.143 726.271 267.143C727.552 267.143 728.357 267.794 728.357 269.355V274.5ZM738.929 270.916C738.929 273.436 737.354 274.668 735.422 274.668C733.497 274.668 731.915 273.436 731.915 270.916C731.915 268.403 733.497 267.143 735.422 267.143C737.354 267.143 738.929 268.403 738.929 270.916ZM733.273 270.916C733.273 272.75 734.162 273.583 735.422 273.583C736.682 273.583 737.564 272.75 737.564 270.916C737.564 269.082 736.682 268.228 735.422 268.228C734.162 268.228 733.273 269.082 733.273 270.916ZM745.202 267.311L745.314 268.333H745.496C746.238 267.563 746.952 267.143 748.212 267.143C748.471 267.143 748.688 267.164 748.905 267.206V268.445C747.309 268.445 746.462 268.55 745.405 269.278V273.429H747.953V274.5H742.171V273.429H744.082V268.382H742.171V267.311H745.202ZM752.372 274.5V273.429H754.92V268.361H752.372V267.311L756.075 267.15L756.25 267.318V273.429H758.798V274.5H752.372ZM754.346 264.595C754.346 264.035 754.745 263.699 755.326 263.699C755.9 263.699 756.299 264.035 756.299 264.595C756.299 265.155 755.9 265.498 755.326 265.498C754.745 265.498 754.346 265.155 754.346 264.595ZM763.973 274.5H762.65V263.79H763.973V270.097H765.38L767.809 267.311H769.321L766.43 270.587V270.678L769.615 274.5H768.012L765.24 271.168H763.973V274.5ZM772.535 274.5V273.429H775.083V268.361H772.535V267.311L776.238 267.15L776.413 267.318V273.429H778.961V274.5H772.535ZM774.509 264.595C774.509 264.035 774.908 263.699 775.489 263.699C776.063 263.699 776.462 264.035 776.462 264.595C776.462 265.155 776.063 265.498 775.489 265.498C774.908 265.498 774.509 265.155 774.509 264.595ZM784.262 272.099V268.382H782.176V267.311H784.262V265.057H785.592V267.311H788.896V268.382H785.592V272.183C785.592 273.177 786.026 273.618 786.761 273.618C787.531 273.618 787.944 273.135 787.944 272.183V271.833H788.945V272.092C788.945 273.772 788.266 274.661 786.6 274.661C785.046 274.661 784.262 273.898 784.262 272.099Z" fill="#74C7EC"/>
</g>
</svg>
